# xmcd
#
# Track frame offsets:
#	150
#	16559
#	29384
#	44319
#	62255
#	77336
#	88769
#	105377
#	123250
#	141309
#	157379
#	173962
#	186299
#
# Disc length: 2685 seconds
# Revision: 0
# Processed by: cddbd v1.5.2PL0 Copyright (c) Steve Scherf et al.
# Submitted via: dBpowerAMP V12.0
#
DISCID=9e0a7b0d
DTITLE=Dennis Ellsworth - Romantic As It Gets Demos
DYEAR=2015
DGENRE=Americana
TTITLE0=Beauty Is Sad
TTITLE1=Full Moon Blues
TTITLE2=Make It Alright
TTITLE3=Stay True
TTITLE4=Mercy Doll
TTITLE5=Shakin' On the Plank
TTITLE6=Shines the Sun In Your Mind
TTITLE7=Ghosts of Love
TTITLE8=Dancing All Alone
TTITLE9=How Long Will I Miss You?
TTITLE10=It's Gonna Be Strange
TTITLE11=Heartache to Dust
TTITLE12=Sweet Decay
EXTD=
EXTT0=
EXTT1=
EXTT2=
EXTT3=
EXTT4=
EXTT5=
EXTT6=
EXTT7=
EXTT8=
EXTT9=
EXTT10=
EXTT11=
EXTT12=
PLAYORDER=
